<svg xmlns="http://www.w3.org/2000/svg" viewBox="88 78 160 136" fill="none" role="img" aria-label="Cooked Pilot logo">
  <defs>
    <linearGradient id="cookedPilotGradient" x1="92" y1="202" x2="238" y2="88" gradientUnits="userSpaceOnUse">
      <stop stop-color="#FF00A8" />
      <stop offset="1" stop-color="#FF1FB8" />
    </linearGradient>
    <filter id="cookedPilotGlow" x="-35%" y="-35%" width="170%" height="170%">
      <feGaussianBlur stdDeviation="2.6" result="blur"/>
      <feMerge><feMergeNode in="blur"/><feMergeNode in="SourceGraphic"/></feMerge>
    </filter>
  </defs>
  <path filter="url(#cookedPilotGlow)" d="M110.8 152.2c0-1.2 11.2-13.8 28.1-13.8 17.6 0 31.9 14.6 31.9 31.6s-14.3 31.6-31.9 31.6c-11.3 0-21.2-6.2-26.6-15.6m-12.8-59.4C102 121.2 100 128.9 100 137c0 22.1 17.9 40 40 40 22.1 0 40-17.9 40-40s-17.9-40-40-40c-20 0-36.5 14.6-39.6 33.7M200 118a14 14 0 110-28 14 14 0 010 28zm11 26l24 16m-41.1-34.9L220 144m15.1 10.1l-24.3-16.2m-10.8-7.2l-23 23c-1.2 1.2-1.2 3.1 0 4.2l23 23c1.2 1.2 3.1 1.2 4.2 0l23-23c1.2-1.2 1.2-3.1 0-4.2l-23-23c-1.2-1.2-3.1-1.2-4.2 0z" stroke="url(#cookedPilotGradient)" stroke-width="2.8" stroke-linecap="round" stroke-linejoin="round"/>
</svg>
