<svg xmlns="http://www.w3.org/2000/svg" viewBox="0 0 120 120" fill="none">
  <defs>
    <linearGradient id="mx" x1="16" y1="14" x2="104" y2="106" gradientUnits="userSpaceOnUse">
      <stop stop-color="#D8B35A"/>
      <stop offset="0.62" stop-color="#F2D58A"/>
      <stop offset="1" stop-color="#FF5A1F"/>
    </linearGradient>
    <filter id="glow" x="-50%" y="-50%" width="200%" height="200%">
      <feGaussianBlur stdDeviation="2.2" result="blur"/>
      <feMerge><feMergeNode in="blur"/><feMergeNode in="SourceGraphic"/></feMerge>
    </filter>
  </defs>
  <g stroke="url(#mx)" stroke-linecap="round" stroke-linejoin="round" filter="url(#glow)">
    <circle cx="60" cy="60" r="46" stroke-width="2.2" opacity="0.95"/>
    <circle cx="60" cy="60" r="31" stroke-width="1.3" opacity="0.48"/>
    <circle cx="60" cy="60" r="17" stroke-width="1" opacity="0.36"/>
    <path d="M60 12v16M60 92v16M12 60h16M92 60h16" stroke-width="1.8" opacity="0.85"/>
    <path d="M27 27l12 12M81 81l12 12M93 27L81 39M39 81L27 93" stroke-width="1.4" opacity="0.58"/>
    <path d="M60 30l28 48H32l28-48z" stroke-width="2.7"/>
    <path d="M32 78h56M46 54h28M60 30v48" stroke-width="1.15" opacity="0.42"/>
    <path d="M40 40l40 40M80 40L40 80" stroke-width="1.25" opacity="0.52"/>
  </g>
  <circle cx="60" cy="60" r="4" fill="#F2D58A"/>
</svg>
