<svg xmlns="http://www.w3.org/2000/svg" viewBox="0 0 140 140" fill="none" role="img" aria-label="Matrix key and lock logo">
  <defs>
    <linearGradient id="mx" x1="14" y1="70" x2="126" y2="70" gradientUnits="userSpaceOnUse">
      <stop stop-color="#1E58FF"/>
      <stop offset="0.5" stop-color="#FF2828"/>
      <stop offset="1" stop-color="#7A2BFF"/>
    </linearGradient>
    <filter id="glow" x="-50%" y="-50%" width="200%" height="200%">
      <feGaussianBlur stdDeviation="2.2" result="blur"/>
      <feMerge><feMergeNode in="blur"/><feMergeNode in="SourceGraphic"/></feMerge>
    </filter>
  </defs>
  <path d="M18 70c0 28.7 23.3 52 52 52s52-23.3 52-52S98.7 18 70 18 18 41.3 18 70Z" stroke="#E7E1D0" stroke-width="1.2" opacity="0.18"/>
  <g filter="url(#glow)">
    <path d="M21 70a20 20 0 1 0 40 0 20 20 0 0 0-40 0Z" stroke="#1E58FF" stroke-width="5"/>
    <path d="M61 70h30" stroke="url(#mx)" stroke-width="8" stroke-linecap="round"/>
    <path d="M75 70v-13h14v13" stroke="#E7E1D0" stroke-width="4" stroke-linecap="round" stroke-linejoin="round" opacity="0.7"/>
    <path d="M91 50h18c9.4 0 17 7.6 17 17v6c0 9.4-7.6 17-17 17H91V50Z" fill="#071013" stroke="#FF2828" stroke-width="5" stroke-linejoin="round"/>
    <path d="M107 63a7 7 0 0 1 4 12v8h-8v-8a7 7 0 0 1 4-12Z" fill="#050607" stroke="#E7E1D0" stroke-width="2" opacity="0.88"/>
    <path d="M53 70h54" stroke="url(#mx)" stroke-width="2" stroke-linecap="round" opacity="0.92"/>
  </g>
  <g stroke="#8FE8A2" stroke-linecap="round" opacity="0.32">
    <path d="M34 41c9-5 18-6 28-3"/>
    <path d="M88 103c10 2 20-1 28-8"/>
    <path d="M45 104c13-8 27-9 40-3"/>
  </g>
</svg>
