<svg xmlns="http://www.w3.org/2000/svg" viewBox="0 0 120 120" fill="none">
  <defs>
    <filter id="siv-glow-wave" x="-20%" y="-80%" width="140%" height="260%">
      <feGaussianBlur in="SourceGraphic" stdDeviation="2.5" result="blur"/>
      <feMerge><feMergeNode in="blur"/><feMergeNode in="SourceGraphic"/></feMerge>
    </filter>
    <filter id="siv-glow-peak" x="-100%" y="-100%" width="300%" height="300%">
      <feGaussianBlur in="SourceGraphic" stdDeviation="4" result="blur"/>
      <feMerge><feMergeNode in="blur"/><feMergeNode in="SourceGraphic"/></feMerge>
    </filter>
    <filter id="siv-glow-dot" x="-200%" y="-200%" width="500%" height="500%">
      <feGaussianBlur in="SourceGraphic" stdDeviation="5" result="blur"/>
      <feMerge><feMergeNode in="blur"/><feMergeNode in="SourceGraphic"/></feMerge>
    </filter>
  </defs>
  <path d="M8,22 L8,8 L22,8" stroke="#00D5FF" stroke-width="1.5" stroke-linecap="square" opacity="0.65"/>
  <path d="M98,8 L112,8 L112,22" stroke="#00D5FF" stroke-width="1.5" stroke-linecap="square" opacity="0.65"/>
  <path d="M8,98 L8,112 L22,112" stroke="#00D5FF" stroke-width="1.5" stroke-linecap="square" opacity="0.65"/>
  <path d="M98,112 L112,112 L112,98" stroke="#00D5FF" stroke-width="1.5" stroke-linecap="square" opacity="0.65"/>
  <circle cx="60" cy="64" r="44" stroke="#06B6D4" stroke-width="0.75" opacity="0.12"/>
  <circle cx="60" cy="64" r="30" stroke="#06B6D4" stroke-width="0.75" opacity="0.17"/>
  <circle cx="60" cy="64" r="16" stroke="#06B6D4" stroke-width="0.75" opacity="0.24"/>
  <path d="M15,64 L37,64 L47,54 L60,22 L68,92 L76,58 L93,58 L105,58"
        stroke="#00D5FF" stroke-width="2.2" stroke-linecap="round" stroke-linejoin="round"
        filter="url(#siv-glow-wave)"/>
  <line x1="15" y1="60" x2="15" y2="68" stroke="#06B6D4" stroke-width="1" opacity="0.38"/>
  <line x1="105" y1="54" x2="105" y2="62" stroke="#06B6D4" stroke-width="1" opacity="0.38"/>
  <circle cx="60" cy="22" r="7"  stroke="#00FFA3" stroke-width="1.2" opacity="0.55" filter="url(#siv-glow-peak)"/>
  <circle cx="60" cy="22" r="13" stroke="#00FFA3" stroke-width="0.75" opacity="0.25"/>
  <circle cx="60" cy="22" r="3" fill="#00FFA3" filter="url(#siv-glow-dot)"/>
  <circle cx="68" cy="92" r="1.5" fill="#06B6D4" opacity="0.48"/>
</svg>