<svg xmlns="http://www.w3.org/2000/svg" viewBox="0 0 120 120" fill="none">
  <defs>
    <radialGradient id="core" cx="50%" cy="50%" r="52%">
      <stop offset="0" stop-color="#EAFBFF"/>
      <stop offset="0.34" stop-color="#7DF9FF"/>
      <stop offset="0.68" stop-color="#8B5CF6"/>
      <stop offset="1" stop-color="#2F6BFF"/>
    </radialGradient>
    <linearGradient id="orbit" x1="18" y1="18" x2="102" y2="102" gradientUnits="userSpaceOnUse">
      <stop stop-color="#7DF9FF"/>
      <stop offset="0.52" stop-color="#8B5CF6"/>
      <stop offset="1" stop-color="#00FFA3"/>
    </linearGradient>
    <filter id="glow" x="-70%" y="-70%" width="240%" height="240%">
      <feGaussianBlur stdDeviation="2.8" result="blur"/>
      <feMerge><feMergeNode in="blur"/><feMergeNode in="SourceGraphic"/></feMerge>
    </filter>
  </defs>
  <rect x="9" y="9" width="102" height="102" rx="28" stroke="#7DF9FF" stroke-width="1.2" opacity="0.28"/>
  <g stroke="url(#orbit)" stroke-linecap="round" stroke-linejoin="round" filter="url(#glow)">
    <ellipse cx="60" cy="60" rx="45" ry="17" stroke-width="2" transform="rotate(-22 60 60)" opacity="0.9"/>
    <ellipse cx="60" cy="60" rx="45" ry="17" stroke-width="1.6" transform="rotate(38 60 60)" opacity="0.72"/>
    <ellipse cx="60" cy="60" rx="19" ry="45" stroke-width="1.4" transform="rotate(8 60 60)" opacity="0.52"/>
    <path d="M36 72l17-25 19 31 14-18" stroke-width="2.4" opacity="0.95"/>
    <path d="M25 35l13 9m44-17l-7 15m17 43l-17-8m-43 15l15-13" stroke-width="1.5" opacity="0.5"/>
  </g>
  <g filter="url(#glow)">
    <circle cx="60" cy="60" r="10" fill="url(#core)"/>
    <circle cx="36" cy="72" r="4.2" fill="#7DF9FF"/>
    <circle cx="53" cy="47" r="3.4" fill="#00FFA3"/>
    <circle cx="72" cy="78" r="4" fill="#8B5CF6"/>
    <circle cx="86" cy="60" r="3.2" fill="#EAFBFF"/>
    <circle cx="38" cy="44" r="2.4" fill="#7DF9FF" opacity="0.85"/>
    <circle cx="75" cy="42" r="2.2" fill="#8B5CF6" opacity="0.9"/>
  </g>
  <g fill="#EAFBFF" opacity="0.7">
    <circle cx="24" cy="26" r="1"/><circle cx="94" cy="24" r="1.2"/><circle cx="99" cy="96" r="1"/><circle cx="20" cy="92" r="0.9"/>
  </g>
</svg>
