<svg xmlns="http://www.w3.org/2000/svg" viewBox="0 0 120 120" fill="none" role="img" aria-label="SIV Substance Intelligence Vault logo">
  <defs>
    <linearGradient id="sivVault" x1="18" y1="14" x2="102" y2="106" gradientUnits="userSpaceOnUse">
      <stop stop-color="#8B5CF6"/>
      <stop offset="0.55" stop-color="#7DF9FF"/>
      <stop offset="1" stop-color="#00FFA3"/>
    </linearGradient>
    <filter id="sivGlow" x="-55%" y="-55%" width="210%" height="210%">
      <feGaussianBlur stdDeviation="2.5" result="blur"/>
      <feMerge><feMergeNode in="blur"/><feMergeNode in="SourceGraphic"/></feMerge>
    </filter>
  </defs>

  <g filter="url(#sivGlow)" stroke="url(#sivVault)" stroke-linecap="round" stroke-linejoin="round">
    <path d="M26 39c0-7.7 6.3-14 14-14h40c7.7 0 14 6.3 14 14v47c0 7.7-6.3 14-14 14H40c-7.7 0-14-6.3-14-14V39Z" stroke-width="3"/>
    <path d="M38 39c0-1.7 1.3-3 3-3h38c1.7 0 3 1.3 3 3v44c0 1.7-1.3 3-3 3H41c-1.7 0-3-1.3-3-3V39Z" stroke-width="1.3" opacity="0.48"/>
    <path d="M44 25v-5c0-5.5 4.5-10 10-10h12c5.5 0 10 4.5 10 10v5" stroke-width="2.1" opacity="0.75"/>
    <circle cx="60" cy="61" r="18" stroke-width="2.4"/>
    <circle cx="60" cy="61" r="6" stroke-width="2.2" fill="#081018"/>
    <path d="M60 43v7M60 72v7M42 61h7M71 61h7M47.3 48.3l5 5M67.7 68.7l5 5M72.7 48.3l-5 5M52.3 68.7l-5 5" stroke-width="1.4" opacity="0.62"/>
    <path d="M26 48h-8M26 73h-8M94 48h8M94 73h8" stroke-width="1.7" opacity="0.52"/>
  </g>

  <g fill="#EAFBFF" opacity="0.72">
    <circle cx="33" cy="32" r="1"/><circle cx="87" cy="32" r="1"/><circle cx="33" cy="91" r="1"/><circle cx="87" cy="91" r="1"/>
  </g>
</svg>
