<svg xmlns="http://www.w3.org/2000/svg" viewBox="0 0 140 140" fill="none">
  <defs>
    <linearGradient id="a" x1="25" y1="18" x2="115" y2="122" gradientUnits="userSpaceOnUse">
      <stop stop-color="#E6C27A"/>
      <stop offset="0.58" stop-color="#16F0C6"/>
      <stop offset="1" stop-color="#0F2A28"/>
    </linearGradient>
  </defs>
  <circle cx="70" cy="70" r="55" stroke="#E6C27A" stroke-width="2.2" opacity="0.82"/>
  <circle cx="70" cy="70" r="45" stroke="#16F0C6" stroke-width="1.1" opacity="0.34"/>
  <circle cx="70" cy="70" r="32" stroke="#E6C27A" stroke-width="0.9" opacity="0.28"/>
  <path d="M70 33v48" stroke="url(#a)" stroke-width="4" stroke-linecap="round"/>
  <path d="M55 53c0-8.3 6.7-15 15-15s15 6.7 15 15c0 5-2.5 9.6-6.5 12.3" stroke="url(#a)" stroke-width="2.8" stroke-linecap="round"/>
  <path d="M56 82h28" stroke="url(#a)" stroke-width="4" stroke-linecap="round"/>
  <path d="M61 91h18" stroke="#E6C27A" stroke-width="2.4" opacity="0.82" stroke-linecap="round"/>
  <path d="M70 33l-8 12h16L70 33Z" fill="#07100F" stroke="#E6C27A" stroke-width="2"/>
  <path d="M42 43h13M85 43h13M40 99h60" stroke="#E6C27A" stroke-width="1.5" opacity="0.46" stroke-linecap="round"/>
  <path d="M42 70h11M87 70h11" stroke="#16F0C6" stroke-width="1.4" opacity="0.52" stroke-linecap="round"/>
  <circle cx="70" cy="10" r="1.5" fill="#E6C27A" opacity="0.72"/>
  <circle cx="70" cy="130" r="1.5" fill="#E6C27A" opacity="0.72"/>
  <circle cx="10" cy="70" r="1.5" fill="#E6C27A" opacity="0.72"/>
  <circle cx="130" cy="70" r="1.5" fill="#E6C27A" opacity="0.72"/>
</svg>
