<svg xmlns="http://www.w3.org/2000/svg" viewBox="0 0 120 120" fill="none">
  <defs>
    <linearGradient id="siv" x1="18" y1="14" x2="102" y2="106" gradientUnits="userSpaceOnUse">
      <stop stop-color="#E6C27A"/>
      <stop offset="0.64" stop-color="#16F0C6"/>
      <stop offset="1" stop-color="#0F2A28"/>
    </linearGradient>
    <filter id="glow" x="-45%" y="-45%" width="190%" height="190%">
      <feGaussianBlur stdDeviation="1.8" result="blur"/>
      <feMerge><feMergeNode in="blur"/><feMergeNode in="SourceGraphic"/></feMerge>
    </filter>
  </defs>
  <circle cx="60" cy="60" r="47" stroke="url(#siv)" stroke-width="2.3" filter="url(#glow)"/>
  <circle cx="60" cy="60" r="37" stroke="#E6C27A" stroke-width="1" opacity="0.36"/>
  <circle cx="60" cy="60" r="27" stroke="#16F0C6" stroke-width="1" opacity="0.24"/>
  <g stroke="url(#siv)" stroke-linecap="round" stroke-linejoin="round" filter="url(#glow)">
    <path d="M60 30v40" stroke-width="3"/>
    <path d="M48 48c0-6.6 5.4-12 12-12s12 5.4 12 12c0 4.2-2.2 7.9-5.5 10" stroke-width="2.2"/>
    <path d="M50 70h20" stroke-width="3"/>
    <path d="M54 77h12" stroke-width="2" opacity="0.76"/>
    <path d="M60 30l-6 9h12l-6-9Z" stroke-width="1.7" fill="#08100F"/>
    <path d="M37 36h10M73 36h10M36 84h48" stroke-width="1.3" opacity="0.45"/>
    <path d="M38 60h9M73 60h9" stroke-width="1.2" opacity="0.5"/>
  </g>
  <g fill="#E6C27A" opacity="0.62">
    <circle cx="60" cy="15" r="1.3"/><circle cx="60" cy="105" r="1.3"/><circle cx="15" cy="60" r="1.3"/><circle cx="105" cy="60" r="1.3"/>
  </g>
  <text x="60" y="96" text-anchor="middle" fill="#E6C27A" font-family="serif" font-size="10" letter-spacing="6" opacity="0.82">SIV</text>
</svg>
