<svg xmlns="http://www.w3.org/2000/svg" viewBox="0 0 300 300">
  <defs>
    <linearGradient id="vibeguardGradient" x1="0%" y1="0%" x2="100%" y2="0%">
      <stop offset="0%" stop-color="#00C6A3"/>
      <stop offset="100%" stop-color="#0066FF"/>
    </linearGradient>
  </defs>
  <g stroke="url(#vibeguardGradient)" stroke-width="2" fill="none" stroke-linecap="round" stroke-linejoin="round">
    <path d="M150 100c-27.6 0-50 22.4-50 50s22.4 50 50 50 50-22.4 50-50c0-6.1-1.1-11.9-3.1-17.3l-2.9 2.9A45.9 45.9 0 01150 196c-25.4 0-46-20.6-46-46s20.6-46 46-46c5.6 0 11 1 16 2.8l3-3a50.1 50.1 0 00-19-3.8z"/>
    <path d="M129 146v8m5-11v14m5-16v18m5-16v14m5-11v8" stroke-width="3"/>
  </g>
</svg>