<svg xmlns="http://www.w3.org/2000/svg" viewBox="0 0 120 120" fill="none">
  <defs>
    <linearGradient id="vl-spec-1" x1="1" y1="0" x2="0" y2="1"><stop offset="0%" stop-color="#2F6BFF"/><stop offset="100%" stop-color="#00CFFF"/></linearGradient>
    <linearGradient id="vl-spec-2" x1="0" y1="0" x2="1" y2="1"><stop offset="0%" stop-color="#00CFFF"/><stop offset="100%" stop-color="#7C3AED"/></linearGradient>
    <linearGradient id="vl-spec-3" x1="0" y1="1" x2="1" y2="0"><stop offset="0%" stop-color="#7C3AED"/><stop offset="100%" stop-color="#E040FB"/></linearGradient>
    <linearGradient id="vl-spec-4" x1="1" y1="1" x2="0" y2="0"><stop offset="0%" stop-color="#E040FB"/><stop offset="100%" stop-color="#2F6BFF"/></linearGradient>
    <filter id="vl-glow-ring" x="-30%" y="-30%" width="160%" height="160%">
      <feGaussianBlur in="SourceGraphic" stdDeviation="2.5" result="blur"/>
      <feMerge><feMergeNode in="blur"/><feMergeNode in="SourceGraphic"/></feMerge>
    </filter>
    <filter id="vl-glow-center" x="-80%" y="-80%" width="260%" height="260%">
      <feGaussianBlur in="SourceGraphic" stdDeviation="4" result="blur"/>
      <feMerge><feMergeNode in="blur"/><feMergeNode in="SourceGraphic"/></feMerge>
    </filter>
  </defs>
  <path d="M8,22 L8,8 L22,8" stroke="#00CFFF" stroke-width="1.5" stroke-linecap="square" opacity="0.65"/>
  <path d="M98,8 L112,8 L112,22" stroke="#7C3AED" stroke-width="1.5" stroke-linecap="square" opacity="0.65"/>
  <path d="M8,98 L8,112 L22,112" stroke="#E040FB" stroke-width="1.5" stroke-linecap="square" opacity="0.65"/>
  <path d="M98,112 L112,112 L112,98" stroke="#2F6BFF" stroke-width="1.5" stroke-linecap="square" opacity="0.65"/>
  <path d="M62.8,20.1 A40,40 0 0,1 99.9,57.2" stroke="url(#vl-spec-1)" stroke-width="4" stroke-linecap="round" filter="url(#vl-glow-ring)"/>
  <path d="M99.9,62.8 A40,40 0 0,1 62.8,99.9" stroke="url(#vl-spec-2)" stroke-width="4" stroke-linecap="round" filter="url(#vl-glow-ring)"/>
  <path d="M57.2,99.9 A40,40 0 0,1 20.1,62.8" stroke="url(#vl-spec-3)" stroke-width="4" stroke-linecap="round" filter="url(#vl-glow-ring)"/>
  <path d="M20.1,57.2 A40,40 0 0,1 57.2,20.1" stroke="url(#vl-spec-4)" stroke-width="4" stroke-linecap="round" filter="url(#vl-glow-ring)"/>
  <circle cx="60" cy="60" r="28" stroke="rgba(255,255,255,0.06)" stroke-width="0.75"/>
  <circle cx="60" cy="60" r="6" fill="rgba(255,255,255,0.08)" stroke="rgba(255,255,255,0.15)" stroke-width="0.75"/>
  <circle cx="60" cy="60" r="3" fill="white" opacity="0.70" filter="url(#vl-glow-center)"/>
  <circle cx="60" cy="60" r="1.5" fill="white" opacity="0.95"/>
</svg>